<mxfile host="app.diagrams.net" modified="2023-10-10T15:15:17.933Z" agent="Mozilla/5.0 (Windows NT 10.0; Win64; x64; rv:109.0) Gecko/20100101 Firefox/118.0" version="22.0.4" etag="xm3gkuEmVdpidra8Mmg1" type="github">
  <diagram name="PÃ¡gina-1" id="uQzndGy_Cng0kIwaLXT9">
    <mxGraphModel>
      <root>
        <mxCell id="0" />
        <mxCell id="1" parent="0" />
      </root>
    </mxGraphModel>
  </diagram>
</mxfile>
